<svg xmlns="http://www.w3.org/2000/svg" xmlns:xlink="http://www.w3.org/1999/xlink" width="3166.238" height="2231.589" viewBox="0 0 3166.238 2231.589"><defs><linearGradient id="a" y1="0.695" x2="1" y2="0.695" gradientUnits="objectBoundingBox"><stop offset="0" stop-color="#231f5b"/><stop offset="1" stop-color="#432e86"/></linearGradient></defs><g transform="translate(0.271 0.34)"><g transform="translate(-0.271 -0.34)"><path d="M2897.525,1842.7c40.155-31.5,236.986-191.343,265.352-451.439,4.522-41.507,18.976-222.454-96.232-364.83-134.686-166.493-289.468-86.029-449.7-236.908-186.009-175.188-8.425-361.121-233.661-495.652s-309.372,47.536-651.4-10.628C1387.035,224.61,1274.88-46,1038.011,14.176,801.142,74.388,906.533,246.639,659.229,446.1,405.316,650.852,104.911,563.238,14.9,768.262c-73.237,166.763,144.927,260.019,99.13,568.966C89.22,1504.416,4.118,1610.735,57.374,1769.111c0,0,26.242,78.106,88.5,145.159,209.894,226.087,783.3-12.483,1515.206-23.768C2333.855,1880.145,2607.632,2070.135,2897.525,1842.7Z" transform="translate(0.271 220.344)" fill="#e1c300"/><circle cx="76.135" cy="76.135" r="76.135" transform="translate(516.198 423.188)" fill="#e1c300"/><circle cx="44.058" cy="44.058" r="44.058" transform="translate(2413.703 398.501)" fill="#e1c300"/><circle cx="27.44" cy="27.44" r="27.44" transform="translate(746.536 209.082)" fill="#e1c300"/><circle cx="66.86" cy="66.86" r="66.86" transform="translate(2779.563 836.714)" fill="#e1c300"/><circle cx="37.874" cy="37.874" r="37.874" transform="translate(102.285 765.603)" fill="#e1c300"/><circle cx="125.99" cy="125.99" r="125.99" transform="translate(1680.662 209.855)" fill="#e1c300"/><circle cx="27.44" cy="27.44" r="27.44" transform="translate(1354.844)" fill="#e1c300"/><circle cx="27.44" cy="27.44" r="27.44" transform="translate(130.215 478.454)" fill="#e1c300"/><rect width="1718.645" height="35.169" transform="translate(479.096 1468.984)" fill="#fff"/><path d="M1675.506,72.966H67.778L12.126,38.57H1730.771Z" transform="translate(466.97 1465.196)" fill="#babcbe"/><rect width="40.193" height="441.739" transform="translate(535.908 1538.162)" fill="#babcbe"/><rect width="40.193" height="441.739" transform="translate(2099.578 1538.162)" fill="#babcbe"/><rect width="40.193" height="26.28" transform="translate(2099.578 1538.162)" fill="#6e6f71" opacity="0.8" style="isolation:isolate"/><rect width="40.193" height="26.28" transform="translate(535.908 1538.162)" fill="#6e6f71" opacity="0.8" style="isolation:isolate"/><path d="M120.912,50.775h0V41.886a6.952,6.952,0,0,0-6.956-6.957h-59.9A6.952,6.952,0,0,0,47.1,41.886h0v91.594a6.977,6.977,0,0,0,6.957,6.956h59.9a6.977,6.977,0,0,0,6.956-6.956h0V116.089h0a32.85,32.85,0,1,0,7.111-65.314A31.25,31.25,0,0,0,120.912,50.775Zm0,57.584h0V58.5h0a25.121,25.121,0,1,1,6.222,49.855A27.928,27.928,0,0,1,120.912,108.36Z" transform="translate(1783.494 1328.168)" fill="#56c1ee"/><path d="M64.887,79.823h6.183V33.06H64.887ZM47.5,93.35H53.68V44.268H47.5ZM86.143,44.268V94.9h6.184V44.268Z" transform="translate(1798.553 1257.768)" fill="#fff"/><path d="M156.54,71.045,149.583,28.92H44.849L37.506,71.045Z" transform="translate(1422.459 1101.9)" fill="#bfbdbe"/><path d="M182.555,168.176H34.536L55.792,34.07H160.913Z" transform="translate(1310.646 1295.784)" fill="#fff"/><rect width="760.579" height="465.7" rx="0.76" transform="translate(1038.709 885.023)" fill="#2280bd"/><rect width="719.613" height="386.473" rx="0.44" transform="translate(1059.192 903.574)" fill="#fff"/><rect width="232.27" height="10.435" transform="translate(1302.67 1458.936)" fill="#fff"/><path d="M26.671,33.54V45.521A29.342,29.342,0,0,0,54.033,76.748c.7.039,1.353.077,2.01.077H757.878a29.359,29.359,0,0,0,29.372-29.372V35.472Z" transform="translate(1012.036 1275.838)" fill="#fff"/><rect width="723.091" height="389.951" rx="0.42" transform="translate(1058.033 900.868)" opacity="0.81" fill="url(#a)" style="isolation:isolate"/><path d="M44.831,23.59l-17,18.164,17,17.778" transform="translate(1058.033 901.24)" fill="none" stroke="#4ebc88" stroke-linecap="round" stroke-linejoin="round" stroke-width="0.2"/><path d="M29.366,23.59l17,18.164-17,17.778" transform="translate(1116.01 901.24)" fill="none" stroke="#4ebc88" stroke-linecap="round" stroke-linejoin="round" stroke-width="0.2"/><line y1="39.034" x2="13.14" transform="translate(1117.163 924.83)" stroke-width="0.2" stroke="#4ebc88" stroke-linecap="round" stroke-linejoin="round" fill="none"/><ellipse cx="4.638" cy="5.024" rx="4.638" ry="5.024" transform="translate(1175.521 959.226)" fill="#4ebc88"/><ellipse cx="4.638" cy="5.024" rx="4.638" ry="5.024" transform="translate(1195.231 959.226)" fill="#4ebc88"/><ellipse cx="4.638" cy="5.024" rx="4.638" ry="5.024" transform="translate(1214.941 959.226)" fill="#4ebc88"/><line x2="507.439" transform="translate(1094.361 1000.965)" stroke-width="0.2" stroke="#4ebc88" stroke-linecap="round" stroke-linejoin="round" fill="none"/><line x2="39.034" transform="translate(1632.718 1000.965)" stroke-width="0.2" stroke="#4ebc88" stroke-linecap="round" stroke-linejoin="round" fill="none"/><line x2="49.855" transform="translate(1693.781 1000.965)" stroke-width="0.2" stroke="#4ebc88" stroke-linecap="round" stroke-linejoin="round" fill="none"/><line x2="317.681" transform="translate(1094.361 1043.863)" stroke-width="0.2" stroke="#6cccde" stroke-linecap="round" stroke-linejoin="round" fill="none"/><line x2="56.812" transform="translate(1459.192 1043.863)" stroke-width="0.2" stroke="#6cccde" stroke-linecap="round" stroke-linejoin="round" fill="none"/><line x1="154.589" transform="translate(1361.414 1068.211)" stroke-width="0.2" stroke="#6cccde" stroke-linecap="round" stroke-linejoin="round" fill="none"/><line x1="31.304" transform="translate(1309.24 1068.211)" stroke-width="0.2" stroke="#6cccde" stroke-linecap="round" stroke-linejoin="round" fill="none"/><line x1="31.304" transform="translate(1253.202 1068.211)" stroke-width="0.2" stroke="#6cccde" stroke-linecap="round" stroke-linejoin="round" fill="none"/><line x1="30.918" transform="translate(1197.55 1068.211)" stroke-width="0.2" stroke="#6cccde" stroke-linecap="round" stroke-linejoin="round" fill="none"/><line x1="31.304" transform="translate(1141.511 1068.211)" stroke-width="0.2" stroke="#6cccde" stroke-linecap="round" stroke-linejoin="round" fill="none"/><line x1="481.545" transform="translate(1141.511 1098.356)" stroke-width="0.2" stroke="#ef5392" stroke-linecap="round" stroke-linejoin="round" fill="none"/><line x1="11.208" transform="translate(1094.361 1068.211)" stroke-width="0.2" stroke="#6cccde" stroke-linecap="round" stroke-linejoin="round" fill="none"/><line x1="11.208" transform="translate(1094.361 1098.356)" stroke-width="0.2" stroke="#6cccde" stroke-linecap="round" stroke-linejoin="round" fill="none"/><line x1="11.208" transform="translate(1094.361 1128.115)" stroke-width="0.2" stroke="#6cccde" stroke-linecap="round" stroke-linejoin="round" fill="none"/><line x1="11.208" transform="translate(1094.361 1157.873)" stroke-width="0.2" stroke="#6cccde" stroke-linecap="round" stroke-linejoin="round" fill="none"/><line x2="66.473" transform="translate(1652.428 1098.356)" stroke-width="0.2" stroke="#ef5392" stroke-linecap="round" stroke-linejoin="round" fill="none"/><line x2="133.333" transform="translate(1140.352 1128.115)" stroke-width="0.2" stroke="#ef5392" stroke-linecap="round" stroke-linejoin="round" fill="none"/><line x2="133.333" transform="translate(1140.352 1158.646)" stroke-width="0.2" stroke="#ef5392" stroke-linecap="round" stroke-linejoin="round" fill="none"/><line x2="133.333" transform="translate(1140.352 1189.177)" stroke-width="0.2" stroke="#ef5392" stroke-linecap="round" stroke-linejoin="round" fill="none"/><line x2="133.333" transform="translate(1140.352 1220.095)" stroke-width="0.2" stroke="#ef5392" stroke-linecap="round" stroke-linejoin="round" fill="none"/><line x2="271.304" transform="translate(1361.414 1220.095)" stroke-width="0.2" stroke="#fed700" stroke-linecap="round" stroke-linejoin="round" fill="none"/><line x2="110.531" transform="translate(1522.187 1189.177)" stroke-width="0.2" stroke="#fed700" stroke-linecap="round" stroke-linejoin="round" fill="none"/><line x2="43.671" transform="translate(1589.047 1157.873)" stroke-width="0.2" stroke="#fed700" stroke-linecap="round" stroke-linejoin="round" fill="none"/><path d="M422.575,130.014,400.546,218.9,104.121,191.463C50.015,194.555,7.89,164.41,23.735,101.028L41.126,37.26Z" transform="translate(776.904 1415.886)" fill="#152247"/><path d="M422.483,113.549l-6.57,81.546L120.262,173.839c-61.836-5.411-105.507-30.145-95.072-83.092L37.17,37.8Z" transform="translate(900.667 1436.216)" fill="#152247"/><path d="M61.423,122.855h-22.8A15.867,15.867,0,0,1,22.776,107.01v-80H76.882V107.4a15.842,15.842,0,0,1-15.845,15.845Z" transform="translate(867.911 1030.001)" fill="#fcccbc"/><path d="M29.526,63.966,79.768,94.111h0a30.524,30.524,0,0,0-7.729-38.647L46.531,36.14Z" transform="translate(1122.031 1373.721)" fill="#fcccbc"/><path d="M35.32,56.574s-29.758,72.27,0,98.551,108.6,107.826,108.6,107.826L315.9,352.226l13.14-33.237L181.406,206.525,81.31,90.583S49.619,18.313,42.663,29.907A122.318,122.318,0,0,0,35.32,56.574Z" transform="translate(842.228 1091.645)" fill="#fff"/><path d="M237.51,394.644H48.911L19.926,78.122A54.1,54.1,0,0,1,77.51,28.654h139.13a54.1,54.1,0,0,1,57.585,49.468Z" transform="translate(760.617 1087.102)" fill="#fff"/><path d="M65.774,23.04h46.763a43.675,43.675,0,0,1,43.671,43.671v73.816a67.245,67.245,0,0,1-67.246,67.246h0a67.245,67.245,0,0,1-67.246-67.246V66.711A43.675,43.675,0,0,1,65.387,23.04Z" transform="translate(828.005 880.542)" fill="#fcccbc"/><path d="M26.057,116.238s-15.072-48.7,11.208-69.179,83.478-4.638,95.845-19.324,31.691,0,33.237,14.686,6.57,11.981,11.981,18.551a23.934,23.934,0,0,1,3.865,23.961C179.1,93.823,171.757,111.987,159,108.509c0,0-14.686-20.869-32.077-16.232s-13.913,13.14-35.555,9.662-32.464-30.918-42.9-13.913S31.854,117.011,26.057,116.238Z" transform="translate(829.462 828.31)" fill="#594e70"/><path d="M32.636,64.046,82.878,94.191h0a30.116,30.116,0,0,0-8.116-38.647L49.641,36.22Z" transform="translate(1239.114 1376.733)" fill="#fcccbc"/><path d="M38.6,56.34S8.452,129,38.6,155.277,147.582,263.1,147.582,263.1l171.594,89.275L332.7,319.141,186.23,206.678,85.747,90.736S54.442,18.079,47.1,30.06A120.679,120.679,0,0,0,38.6,56.34Z" transform="translate(959.143 1094.585)" fill="#fff"/><path d="M75.626,417.6H29.636V39.63h74.976Z" transform="translate(1126.175 1505.103)" fill="#152247"/><path d="M78.046,417.83H32.056V39.86h74.589Z" transform="translate(1217.281 1513.762)" fill="#152247"/><path d="M182.341,67.936l-6.57,3.092s-12.754,5.8-10.821,33.237-4.638,18.164-4.638,18.164l-6.57,1.932,5.8-69.952L174.226,63.3a19.312,19.312,0,0,0-18.319,20.251,19.528,19.528,0,0,0,.541,3.71,335.269,335.269,0,0,1-17.391,104.734c-8.889,14.3-34.782,15.845-52.56,14.686a54.287,54.287,0,0,1-30.145-10.821h0A55.093,55.093,0,0,1,35.1,163.395C28.139,129.385,15.385,62.912,23.5,51.318a290.7,290.7,0,0,1,96.618-28.212,54.432,54.432,0,0,1,48.7,15.845l6.956,6.957V59.82" transform="translate(796.848 851.491)" fill="#594e70"/><path d="M40.464,49.36,29.256,99.6l177.777,4.251A258,258,0,0,0,86.068,53.225Z" transform="translate(1111.866 1871.418)" fill="#2d2d2d"/><path d="M42.934,49.57,31.726,98.652,209.5,102.13A259.159,259.159,0,0,0,88.924,53.048Z" transform="translate(1204.855 1879.324)" fill="#2d2d2d"/><path d="M341.55,31.744H94.981A72.267,72.267,0,0,0,17.686,95.9v96.232a72.246,72.246,0,0,0,77.295,64.541H341.55a71.91,71.91,0,0,0,77.295-64.541V95.9A71.848,71.848,0,0,0,341.55,31.744Z" transform="translate(676.287 1199.18)" fill="#de4635"/><path d="M424.643,41.983H72.18a46.764,46.764,0,1,0,0,92.367H424.643a46.764,46.764,0,1,0,0-92.367Z" transform="translate(690.585 1571.55)" fill="#de4635"/><path d="M167.9,200.75a6.183,6.183,0,0,0,4.638-5.8,5.789,5.789,0,0,0-5.8-5.8H156.309V157.465a25.934,25.934,0,0,0,14.3-23.188V56.982a26.279,26.279,0,0,0-52.174,0v77.295a25.475,25.475,0,0,0,14.686,23.188v31.691H122.3a5.789,5.789,0,0,0-5.8,5.8h0a6.183,6.183,0,0,0,4.638,5.8,5.411,5.411,0,0,0,0,10.821,6.183,6.183,0,0,0-4.638,5.8,5.419,5.419,0,0,0,4.638,5.411,5.782,5.782,0,0,0-4.638,5.8,5.419,5.419,0,0,0,4.638,5.411,5.781,5.781,0,0,0-4.638,5.8,5.411,5.411,0,1,1,0,10.821,5.842,5.842,0,0,0,4.638,5.8,5.419,5.419,0,0,0-4.638,5.411,6.183,6.183,0,0,0,4.638,5.8,5.411,5.411,0,1,0,0,10.821,6.183,6.183,0,0,0-4.638,5.8,5.419,5.419,0,0,0,4.638,5.411,6.183,6.183,0,0,0-4.638,5.8,5.789,5.789,0,0,0,5.8,5.8H133.12v66.86a70.844,70.844,0,0,0,13.913,53.72,61.124,61.124,0,0,0,31.3,14.686V538.528H163.652V648.286H82.492A22.158,22.158,0,0,0,72.444,650.6l-48.7,27.053a7.346,7.346,0,0,0,3.865,13.913H372.347a7.346,7.346,0,0,0,3.478-13.913L327.516,650.6a22.158,22.158,0,0,0-10.048-2.319H234.376V538.528H218.531V444.615h18.551a6.214,6.214,0,0,0,5.411,3.092h42.9a6.184,6.184,0,0,0,0-12.367H240.946a6.135,6.135,0,0,0-5.411,3.092H216.985V416.4h-6.956a72.235,72.235,0,0,1-46.377-11.208c-6.957-6.957-7.343-18.551-6.957-38.647V301.233H167.13a5.789,5.789,0,0,0,5.8-5.8h0a6.183,6.183,0,0,0-4.638-5.8,5.419,5.419,0,0,0,4.638-5.411,6.183,6.183,0,0,0-4.638-5.8,5.411,5.411,0,1,0,0-10.821,6.183,6.183,0,0,0,4.638-5.8,5.419,5.419,0,0,0-4.638-5.411,5.8,5.8,0,0,0,4.638-5.8,5.411,5.411,0,1,1,0-10.821,5.745,5.745,0,0,0-4.638-5.8,5.419,5.419,0,0,0,4.638-5.411,5.745,5.745,0,0,0-4.638-5.8,5.419,5.419,0,0,0,4.638-5.411,6.183,6.183,0,0,0-4.638-5.8,5.411,5.411,0,1,0,0-10.821Z" transform="translate(749.838 1288.338)" fill="#414142"/><path d="M168.634,93.024A58.744,58.744,0,1,1,109.89,34.28a58.743,58.743,0,0,1,58.744,58.744Z" transform="translate(1935.965 1303.697)" fill="#fef6e3"/><path d="M59.156,39.188a3.478,3.478,0,0,1-3.478,3.092,3.531,3.531,0,0,1-3.092-3.092,3.291,3.291,0,1,1,6.57,0Z" transform="translate(1990.177 1357.533)" fill="#414142"/><path d="M54.171,49.366a21.254,21.254,0,0,0,6.068,29.449l.5.309L83.93,42.8a21.254,21.254,0,0,0-29.449,6.068Zm148.019,0a21.256,21.256,0,0,0-29.256-6.879l-.5.309,23.188,36.328A21.668,21.668,0,0,0,202.191,49.366ZM190.983,97.288A63,63,0,1,0,85.476,143.665l-7.729,13.527a3.159,3.159,0,0,0,0,3.478,2.324,2.324,0,0,0,3.285.193l.193-.193,6.57-11.981a61.256,61.256,0,0,0,38.647,12.754,60.433,60.433,0,0,0,38.647-12.754l6.957,11.981s0,1.932,3.092,0,0,0,0-3.478l-6.57-13.527A62.546,62.546,0,0,0,190.983,97.288Zm-63,54.106a54.3,54.3,0,1,1,.387,0Z" transform="translate(1917.867 1299.82)" fill="#414142"/><rect width="1.932" height="8.116" transform="translate(2045.085 1346.858)" fill="#414142"/><rect width="1.932" height="35.942" transform="translate(2045.085 1359.998)" fill="#414142"/><rect width="1.932" height="23.961" transform="matrix(0.583, -0.812, 0.812, 0.583, 2045.178, 1396.709)" fill="#414142"/><rect width="8.116" height="1.932" transform="translate(2087.597 1395.554)" fill="#414142"/><rect width="1.932" height="8.116" transform="translate(2045.085 1438.452)" fill="#414142"/><rect width="8.116" height="1.932" transform="translate(1996.003 1395.554)" fill="#414142"/><rect width="370.241" height="299.13" transform="translate(1997.549 934.878)" fill="#fff"/><path d="M63.413,94.224l.773-7.343L57.23,88.814l.386-7.343L51.046,83.4l50.628-59.9-1.546,6.957,8.116-1.159-.386,7.343,6.57-2.319Z" transform="translate(1932.203 897.852)" fill="#2aaae2"/><path d="M59.836,35.34l6.57.773-1.546-6.57,6.956.386-1.932-6.57,57.585,49.082L120.9,70.9l1.159,7.729-6.956-.773,1.932,6.57Z" transform="translate(2263.123 892.581)" fill="#2aaae2"/><rect width="308.792" height="76.135" transform="translate(2026.148 1027.632)" fill="#3f67b1"/><rect width="90.821" height="36.328" transform="translate(2026.534 1120.385)" fill="#dfe6f4"/><rect width="20.483" height="3.865" transform="translate(2038.901 1068.211)" fill="#fff"/><rect width="119.034" height="4.638" transform="translate(2039.288 1075.554)" fill="#dfe6f4"/><rect width="63.768" height="4.638" transform="translate(2039.288 1082.897)" fill="#dfe6f4"/><rect width="20.483" height="4.638" transform="translate(2170.302 1003.67)" fill="#dfe6f4"/><rect width="29.758" height="4.638" transform="translate(2197.355 1003.67)" fill="#dfe6f4"/><rect width="29.758" height="4.638" transform="translate(2233.684 1003.67)" fill="#dfe6f4"/><rect width="29.758" height="4.638" transform="translate(2268.853 1003.67)" fill="#dfe6f4"/><rect width="29.758" height="4.638" transform="translate(2305.181 1003.67)" fill="#dfe6f4"/><rect width="96.232" height="10.435" transform="translate(2023.829 1000.578)" fill="#de4635"/><rect width="41.739" height="6.57" transform="translate(2026.921 1163.284)" fill="#dfe6f4"/><rect width="78.068" height="4.251" transform="translate(2026.921 1172.945)" fill="#dfe6f4"/><rect width="86.57" height="4.251" transform="translate(2026.921 1179.902)" fill="#dfe6f4"/><rect width="90.821" height="36.328" transform="translate(2137.452 1119.999)" fill="#dfe6f4"/><rect width="41.739" height="6.57" transform="translate(2137.838 1162.511)" fill="#dfe6f4"/><rect width="78.068" height="4.251" transform="translate(2137.838 1172.172)" fill="#dfe6f4"/><rect width="86.57" height="4.251" transform="translate(2137.838 1179.129)" fill="#dfe6f4"/><rect width="90.821" height="36.328" transform="translate(2242.573 1120.772)" fill="#dfe6f4"/><rect width="41.739" height="6.57" transform="translate(2242.959 1163.284)" fill="#dfe6f4"/><rect width="78.068" height="4.251" transform="translate(2242.959 1172.945)" fill="#dfe6f4"/><rect width="86.57" height="4.251" transform="translate(2242.959 1179.902)" fill="#dfe6f4"/><path d="M58.776,29.11l6.957,4.251-6.957,3.865Z" transform="translate(2223.217 1109.053)" fill="#fff"/><path d="M65.989,29.218a7.539,7.539,0,0,0,0,15.072,7.73,7.73,0,1,0,3.439-15.072A7.389,7.389,0,0,0,65.989,29.218Zm0,14.3a6.564,6.564,0,0,1-6.57-6.57A6.6,6.6,0,0,1,65.6,29.991h.386a6.952,6.952,0,0,1,6.956,6.956h0A6.956,6.956,0,0,1,65.989,43.517Z" transform="translate(2218.32 1105.475)" fill="#fff"/><ellipse cx="417.391" cy="6.957" rx="417.391" ry="6.957" transform="translate(669.628 1972.558)" fill="#979899"/><path d="M249.705,205.977H100.526L61.106,46.75H289.125Z" transform="translate(2310.935 1773.151)" fill="#82cfec"/><path d="M61.336,47.69l8.889,35.556H262.689l8.5-35.556Z" transform="translate(2319.594 1808.54)" fill="#56c1ee"/><rect width="22.802" height="224.154" transform="translate(2474.843 1590.723)" fill="#8a5e3c"/><rect width="258.55" height="52.947" transform="translate(2356.582 1814.877)" fill="#82cfec"/><path d="M176.443,44.248a90.416,90.416,0,0,1-107.594,69.1c-1.507-.309-3.015-.7-4.483-1.082A107.878,107.878,0,0,1,105.719,54.3,104.49,104.49,0,0,1,176.443,44.248Z" transform="translate(2433.662 1594.405)" fill="#6bbd65"/><path d="M176.037,47.257a106.425,106.425,0,0,1-41.353,57.585,107.451,107.451,0,0,1-70.338,10.435A90.418,90.418,0,0,1,172.056,46.29C173.37,46.561,174.723,46.909,176.037,47.257Z" transform="translate(2432.909 1676.034)" fill="#6bbd65"/><path d="M153.235,39.36a105.721,105.721,0,0,1-23.961,66.86,107.727,107.727,0,0,1-64.927,28.6,107.676,107.676,0,0,1,24.348-66.86A106.145,106.145,0,0,1,153.235,39.36Z" transform="translate(2432.909 1494.946)" fill="#6bbd65"/><path d="M174.825,110.28a110.373,110.373,0,0,1-70.725-7.73A109.152,109.152,0,0,1,60.816,46.125a107.368,107.368,0,0,1,70.724,7.729A109.153,109.153,0,0,1,174.825,110.28Z" transform="translate(2300.015 1644.316)" fill="#6bbd65"/><path d="M151.966,135.049A90.452,90.452,0,0,1,61.454,44.692c0-1.314.039-2.628.077-3.942a107.679,107.679,0,0,1,65.314,27.826A109.794,109.794,0,0,1,151.966,135.049Z" transform="translate(2324.033 1547.275)" fill="#6bbd65"/><path d="M68.55,37.8a105.471,105.471,0,0,0,0,71.111,107.635,107.635,0,0,0,50.628,49.469A90.069,90.069,0,0,0,73.3,39.578c-1.469-.618-2.9-1.237-4.367-1.778Z" transform="translate(2358.754 1436.216)" fill="#6bbd65"/></g></g></svg>