<svg xmlns="http://www.w3.org/2000/svg" width="1041" height="1883" viewBox="0 0 1041 1883"><defs><style>.a,.b{fill:#e1c300;}.b{stroke:#707070;}.c{stroke:none;}.d{fill:none;}</style></defs><g transform="translate(0)"><path class="a" d="M72.58,288.07c-124.555-85.9-64.426-231.932,0-266.292C87.2,13.98,100.05,6.847,111.357,0V311.963A430.432,430.432,0,0,1,72.58,288.07Z" transform="translate(929.643 778.366)"/><path class="a" d="M0,104.883C72.611,68.759,145.616,39.013,219,18.2,358.249-21.3,487.265,11.1,599.769,43.5c108.71,31.311,202.005,62.621,274.217,29.06,30.183-14.028,59.358-32.653,114.4-40.646v72.965Z" transform="translate(52.614 1778.117)"/><path class="a" d="M0,0C5.352,5.962,10.011,11.783,12.422,16.266,20.507,31.3,44.762,78.545,33.645,130.085s-2.021,131,12.127,191.128S50.826,430.737,25.56,480.13C18.744,493.455,9.65,505.528,0,516.057Z" transform="translate(0 55.366)"/><path class="a" d="M0,0C19.03,6.733,40.709,17.65,64.124,35.023c81.918,60.78,42.371,164.107,0,188.419C30.894,242.509,11.563,255.967,0,274.813Z" transform="translate(0 1469.907)"/><g class="b"><rect class="c" width="10" height="10"/><rect class="d" x="0.5" y="0.5" width="9" height="9"/></g></g></svg>