<svg xmlns="http://www.w3.org/2000/svg" width="860.285" height="1810.5" viewBox="0 0 860.285 1810.5"><g transform="translate(0 -68.399)"><path d="M19.882,227.151c6.368-40.308,25.885-52.7,20.647-88.7C36.051,107.662,17.063,84.24,0,68.4V485.94c40.008-35.06,52.04-66.836,55.058-90.556C63.253,330.989,8.133,301.52,19.882,227.151Z" fill="#e1c300"/><path d="M1098.595,928.315c-54.759,33.755-88.5,94.7-85.646,159.581,2.611,59.4,35.5,113.107,85.646,143.88Z" transform="translate(-238.309 -202.34)" fill="#e1c300"/><path d="M0,1978.852c18.539-27.518,38.915-67.394,46.647-118.312C60.28,1770.761,26.949,1697.113,0,1654.3Z" transform="translate(0 -373.166)" fill="#e1c300"/><path d="M860.285,2393.867a483.362,483.362,0,0,0-133.822-29.318c-82.29-5.864-107.767,14.349-186.586,22.176-190.115,18.879-246.654-78.39-406.055-60.411C98.175,2330.335,52.5,2340.675,0,2366.94v42.726H860.285Z" transform="translate(0 -530.767)" fill="#e1c300"/></g></svg>