<svg xmlns="http://www.w3.org/2000/svg" width="56.758" height="56.682" viewBox="0 0 56.758 56.682"><defs><style>.a{fill:#fff;}.b{fill:#e1c300;opacity:0.8;}</style></defs><path class="a" d="M29.562.632,40.586,22.679a2.312,2.312,0,0,1-.624,2.84L1.288,56.459a.79.79,0,0,1-1.2-.97L27.517.632A1.143,1.143,0,0,1,29.562.632Z" transform="translate(0 0)"/><path class="b" d="M103.942,118.726,130.492,133.9a1.431,1.431,0,0,0,1.99-1.883l-12.971-25.941a.966.966,0,0,0-1.467-.322l-14.228,11.382A.966.966,0,0,0,103.942,118.726Z" transform="translate(-75.882 -77.411)"/></svg>