<svg xmlns="http://www.w3.org/2000/svg" width="212.963" height="212.677" viewBox="0 0 212.963 212.677"><defs><style>.a{fill:#fff;}.b{fill:#e1c300;}</style></defs><g transform="translate(0 0)"><path class="a" d="M110.921,2.372,152.283,85.1a8.676,8.676,0,0,1-2.34,10.656L4.833,211.839a2.963,2.963,0,0,1-4.5-3.639L103.247,2.372A4.289,4.289,0,0,1,110.921,2.372Z"/><path class="b" d="M105.281,155.016,204.9,211.942a5.37,5.37,0,0,0,7.468-7.065L163.7,107.543a3.623,3.623,0,0,0-5.5-1.209l-53.384,42.707A3.623,3.623,0,0,0,105.281,155.016Z"/></g></svg>