<svg xmlns="http://www.w3.org/2000/svg" xmlns:xlink="http://www.w3.org/1999/xlink" width="132" height="134" viewBox="0 0 132 134"><defs><filter id="a" x="0" y="0" width="132" height="134" filterUnits="userSpaceOnUse"><feOffset dx="3" dy="3" input="SourceAlpha"/><feGaussianBlur stdDeviation="3" result="b"/><feFlood flood-opacity="0.161"/><feComposite operator="in" in2="b"/><feComposite in="SourceGraphic"/></filter></defs><g transform="translate(-3976 -1667)"><g transform="matrix(1, 0, 0, 1, 3976, 1667)" filter="url(#a)"><rect width="114" height="116" rx="18" transform="translate(6 6)" fill="#303046"/></g><path d="M47.453,1.546q1.9-2.211,2.64-1.624T49.574,3.17a57.252,57.252,0,0,1-5.3,8.776,67.612,67.612,0,0,1-7.738,8.325,38.8,38.8,0,0,1-6.723,4.648q-4.467,2.572-7.22,2.572a13.63,13.63,0,0,1-5.55-1.85,50.141,50.141,0,0,1-7.265-4.6,29.651,29.651,0,0,1-6.317-6.475A11.675,11.675,0,0,1,.887,7.547,43.924,43.924,0,0,1,3.234-4.23,84.66,84.66,0,0,1,8.6-17.089a128.47,128.47,0,0,1,6.723-11.529,53.911,53.911,0,0,1,6.768-8.573q3.249-3.226,5.189-3.226a53.657,53.657,0,0,1,10.356.97,46.065,46.065,0,0,1,8.19,2.279,42.537,42.537,0,0,1,5.8,2.82,27.476,27.476,0,0,1,3.7,2.5,7.227,7.227,0,0,1,1.376,1.4q1.263,2.166-.2,5.663a22.123,22.123,0,0,1-4.129,6.407A28.5,28.5,0,0,1,46.8-13.592q-2.91,1.873-4.264,1.241a.442.442,0,0,1-.248-.429,2.609,2.609,0,0,1,.113-.835q.135-.5.338-1.105t.519-1.354q.316-.745.609-1.4t.609-1.421q.316-.767.5-1.309a32.116,32.116,0,0,0,1.4-5.1,13.064,13.064,0,0,0,.226-3.745,5.424,5.424,0,0,0-.722-2.279,2.011,2.011,0,0,0-1.4-.97q-2.346-.361-6.723,6.588A90.264,90.264,0,0,0,29.044-6.937q-4.2,12.544-2.256,17.6a3.752,3.752,0,0,0,3.745,2.617Q37.166,13.278,47.453,1.546Z" transform="translate(4009.679 1736.94)" fill="#b0a990"/></g></svg>