<svg xmlns="http://www.w3.org/2000/svg" xmlns:xlink="http://www.w3.org/1999/xlink" width="133" height="133" viewBox="0 0 133 133"><defs><filter id="a" x="0" y="0" width="133" height="133" filterUnits="userSpaceOnUse"><feOffset dx="3" dy="3" input="SourceAlpha"/><feGaussianBlur stdDeviation="3" result="b"/><feFlood flood-opacity="0.161"/><feComposite operator="in" in2="b"/><feComposite in="SourceGraphic"/></filter></defs><g transform="translate(-3906 -2500)"><g transform="matrix(1, 0, 0, 1, 3906, 2500)" filter="url(#a)"><rect width="115" height="115" rx="18" transform="translate(6 6)" fill="#263238"/></g><path d="M67.309-7.017q-.186.522-1.193,4.811T64.008,7.733a53.388,53.388,0,0,0-1.137,7.925,4.078,4.078,0,0,0,.392,2.144,1.637,1.637,0,0,0,1.044.858,5.916,5.916,0,0,0,1.231.131,3.2,3.2,0,0,1,1.044.149.584.584,0,0,1,.392.671q0,.746-1.921,2.5a24.23,24.23,0,0,1-4.867,3.338A11.271,11.271,0,0,1,55,27.032q-1.716,0-4.606-2.461a32.736,32.736,0,0,1-5.035-5.333q-2.144-2.872-2.107-4.028a32.537,32.537,0,0,1,1.9-9.174q1.6-4.55,5.706-16.745h-.671q-1.6,2.8-3.543,6.471T43.422,1.971q-1.287,2.536-3.226,6.4t-2.461,4.9q.075.485.186,1.38t.186,1.38q.112.932.131,1.324A2.784,2.784,0,0,1,38,18.417a2.369,2.369,0,0,1-.932,1.119,54.542,54.542,0,0,1-6.154,3.487q-3.394,1.66-5.408,2.424a22.87,22.87,0,0,1-2.424.839q-1.454.186-1.753-1.38Q18.155,7.192,15.731-1.908,12.9,11.108,12.524,14.8a5.112,5.112,0,0,0,.149,2.182,3,3,0,0,0,.839,1.38,8.649,8.649,0,0,0,1.082.8,7.523,7.523,0,0,1,.951.69,1.013,1.013,0,0,1,.41.765,3.418,3.418,0,0,1-.671,1.566,13.856,13.856,0,0,1-1.7,2.107,10.988,10.988,0,0,1-2.405,1.865,5.226,5.226,0,0,1-2.611.8,5.885,5.885,0,0,1-2.76-1.548,24.816,24.816,0,0,1-3.6-3.543q-1.66-2-1.66-3.077,0-3.1,10.517-28.791a3.474,3.474,0,0,0-4.028-.783A7.156,7.156,0,0,0,6.65-9.162,17.971,17.971,0,0,1,6.3-7.353q-.186.709-.559.709-.9,0-2.163-2.256A9.08,9.08,0,0,1,2.23-12.537q-.037-1.044,2.144-3.58a32.776,32.776,0,0,1,4.494-4.363,49.794,49.794,0,0,1,7.272-5.2Q20.5-28.312,21.4-28.2q2.946.41,6.9,8.2A93.365,93.365,0,0,1,35.2-.081q9.249-15.253,13.09-20.549V-20.7q0-.634,2.088-2.76T53.7-25.59q1.939,0,8.839,1.771t7.2,2.256a3.276,3.276,0,0,1,.466,1.6,10.546,10.546,0,0,1-.093,2.387q-.186,1.305-.5,2.722t-.709,2.816q-.392,1.4-.727,2.461t-.6,1.809Z" transform="translate(3934.003 2565.45)" fill="#fff"/></g></svg>