<svg xmlns="http://www.w3.org/2000/svg" xmlns:xlink="http://www.w3.org/1999/xlink" width="134" height="136" viewBox="0 0 134 136"><defs><filter id="a" x="0" y="0" width="134" height="136" filterUnits="userSpaceOnUse"><feOffset dx="3" dy="3" input="SourceAlpha"/><feGaussianBlur stdDeviation="3" result="b"/><feFlood flood-opacity="0.161"/><feComposite operator="in" in2="b"/><feComposite in="SourceGraphic"/></filter></defs><g transform="translate(-3920 -3383)"><g transform="matrix(1, 0, 0, 1, 3920, 3383)" filter="url(#a)"><rect width="116" height="118" rx="18" transform="translate(6 6)" fill="#fff"/></g><path d="M19.15-41.465q6.284,0,17.453,3.394a131.164,131.164,0,0,1,19.861,7.683q8.692,4.289,8.692,6.582,0,2.523-3.1,8.417A44.179,44.179,0,0,1,55.3-5.6Q53.139-3.256,46.9.276A84.877,84.877,0,0,1,33.6,6.331a3.051,3.051,0,0,1-2.064.161.943.943,0,0,1-.6-1.078,2.184,2.184,0,0,1,.872-1.422q3.67-2.89,7.133-9.541A57.159,57.159,0,0,0,43.92-18.461q1.514-6.261.367-8.463-.459-.78-4.862-.183-.5,2.615-1.812,7.293t-2.339,8Q34.241-8.485,34.15-8.3,33.828-7.292,32.7-3.279T30.228,6.766a49.223,49.223,0,0,0-1.4,8.784,6.356,6.356,0,0,0,.344,2.293,2,2,0,0,0,.917,1.147,4.155,4.155,0,0,0,1.238.367,6.858,6.858,0,0,0,1.216.069,1.681,1.681,0,0,1,.94.206.831.831,0,0,1,.39.78q-.046.917-2.248,3.027a27.051,27.051,0,0,1-5.642,4.014,13.066,13.066,0,0,1-6.192,1.9q-2.064,0-5.573-2.981A40.428,40.428,0,0,1,8.1,19.931q-2.615-3.463-2.569-4.839A38.3,38.3,0,0,1,7.867,3.9Q9.151.093,18.646-22.2a81.18,81.18,0,0,0-7.706,3.165q-2.2,1.147-2.064,4.541a2.255,2.255,0,0,1-.39,1.766Q8-12.246,7-12.843q-.734-.6-4.082-6.72t-3.394-7.27q-.138-1.743,4.036-5.344a61.967,61.967,0,0,1,8.99-6.445Q17.361-41.465,19.15-41.465Z" transform="translate(3951.886 3454.193)" fill="teal"/></g></svg>